# xmcd
#
# Track frame offsets: 
#        150
#        14797
#        29944
#        44474
#        58892
#        69864
#
# Disc length: 1124 seconds
#
# Revision: 0
# Processed by: cddbd v1.5.2PL0 Copyright (c) Steve Scherf et al.
# Submitted via: ExactAudioCopy v0.99pb4
#
DISCID=59046206
DTITLE=The Cubical - The Great White Lie
DYEAR=2007
DGENRE=Blues
TTITLE0=The Great White Lie
TTITLE1=Poison Pen
TTITLE2=Nine Clear Moments
TTITLE3=Oh Blessed Be I
TTITLE4=Poor Man's Disease
TTITLE5=Red Rag
EXTD=
EXTT0=
EXTT1=
EXTT2=
EXTT3=
EXTT4=
EXTT5=
PLAYORDER=
